<?xml version="1.0" standalone="no"?>
<!DOCTYPE svg PUBLIC "-//W3C//DTD SVG 20010904//EN"
 "http://www.w3.org/TR/2001/REC-SVG-20010904/DTD/svg10.dtd">
<svg version="1.0" xmlns="http://www.w3.org/2000/svg"
 width="1200.000000pt" height="1200.000000pt" viewBox="0 0 1200.000000 1200.000000"
 preserveAspectRatio="xMidYMid meet">

<g xmlns="http://www.w3.org/2000/svg" transform="translate(0.000000,1200.000000) scale(0.100000,-0.100000)" fill="#ffffff" stroke="none">
<path d="M8980 9900 c0 -5 -14 -8 -57 -11 -10 0 -35 -7 -56 -15 -21 -8 -43 -12 -48 -9 -5 4 -9 1 -9 -6 0 -7 -3 -10 -6 -6 -4 3 -13 -1 -21 -9 -9 -8 -22 -13 -29 -10 -8 3 -14 2 -14 -3 0 -5 -14 -14 -30 -21 -17 -7 -39 -23 -49 -36 -10 -13 -21 -21 -24 -18 -3 3 -620 -609 -1371 -1360 -751 -751 -1369 -1366 -1373 -1366 -5 0 -629 621 -1388 1380 -758 758 -1381 1377 -1384 1375 -2 -3 -19 7 -38 21 -18 14 -33 22 -33 18 0 -3 -12 1 -26 11 -14 9 -34 18 -45 21 -20 4 -43 10 -82 20 -53 14 -77 16 -167 16 -127 -1 -190 -5 -190 -14 0 -5 -3 -7 -8 -6 -12 4 -162 -56 -162 -65 0 -4 -5 -5 -10 -2 -6 3 -13 -1 -16 -9 -3 -9 -10 -14 -14 -11 -5 3 -15 -4 -23 -15 -7 -11 -16 -17 -20 -14 -8 8 -179 -167 -197 -202 -8 -16 -18 -31 -22 -34 -11 -8 -58 -118 -58 -136 0 -8 -8 -27 -17 -41 -15 -23 -18 -52 -18 -192 1 -174 10 -224 65 -331 9 -19 25 -51 35 -70 10 -19 631 -649 1386 -1405 753 -754 1369 -1374 1369 -1378 0 -4 -613 -621 -1362 -1371 -750 -750 -1369 -1372 -1376 -1382 -7 -10 -19 -34 -27 -51 -9 -18 -20 -33 -25 -33 -6 0 -10 -11 -10 -25 0 -14 -4 -25 -10 -25 -5 0 -10 -9 -10 -21 0 -11 -5 -30 -11 -41 -20 -37 -39 -150 -39 -228 0 -120 33 -256 81 -340 5 -8 15 -30 23 -47 26 -58 286 -310 286 -277 0 4 9 -1 19 -10 11 -10 25 -19 33 -20 7 -1 23 -8 36 -15 13 -7 32 -14 43 -17 21 -4 51 -12 89 -21 22 -6 269 -7 313 -1 9 1 17 6 17 11 0 4 4 6 9 3 11 -7 161 54 161 66 0 5 4 6 10 3 5 -3 10 -2 10 4 0 5 10 13 23 17 12 4 25 12 29 18 4 6 11 11 16 11 5 0 622 614 1372 1363 l1363 1364 1371 -1370 c1225 -1223 1456 -1450 1456 -1427 0 3 10 0 23 -7 12 -7 24 -13 27 -13 3 0 20 -9 38 -18 17 -10 32 -15 32 -12 0 3 10 0 23 -6 12 -7 33 -14 47 -15 14 -2 39 -6 55 -9 42 -8 215 -11 215 -4 0 3 11 5 25 4 14 -2 25 1 25 6 0 4 6 6 14 3 8 -3 29 2 46 11 17 9 38 14 46 11 8 -3 14 -1 14 5 0 6 5 7 10 4 6 -3 10 -1 10 5 0 7 7 10 15 6 8 -3 15 -1 15 5 0 6 5 7 10 4 6 -3 10 -1 10 5 0 6 11 15 25 20 14 5 25 14 25 20 0 5 3 9 8 8 28 -8 216 174 246 238 11 21 22 41 25 44 9 7 56 126 70 176 17 64 14 300 -5 365 -21 70 -87 211 -108 228 -9 7 -16 19 -16 25 0 6 -614 625 -1365 1376 -751 751 -1365 1368 -1365 1372 0 4 613 621 1363 1371 749 751 1367 1371 1373 1379 7 8 20 30 29 49 10 19 21 36 25 39 7 5 36 83 63 166 26 78 23 298 -3 383 -41 130 -88 208 -186 310 -81 85 -184 172 -184 156 0 -3 -12 3 -27 12 -15 10 -28 17 -30 15 -2 -1 -17 5 -33 13 -17 9 -30 13 -30 10 0 -3 -10 0 -22 7 -26 14 -37 16 -93 24 -58 7 -225 10 -225 4z"/>
</g>
</svg>
