<?xml version="1.0" ?>
<svg fill="none" height="24" viewBox="0 0 24 24" width="24" xmlns="http://www.w3.org/2000/svg">
	<path clip-rule="evenodd" d="M7.00248 1.95025C7.02804 1.69465 7.24312 1.5 7.5 1.5H10.5C10.6413 1.5 10.7759 1.55976 10.8707 1.6645C10.9655 1.76924 11.0116 1.90919 10.9975 2.04975L10.6025 6H14.5975L15.0025 1.95025C15.028 1.69465 15.2431 1.5 15.5 1.5H18.5C18.6413 1.5 18.7759 1.55976 18.8707 1.6645C18.9655 1.76924 19.0116 1.90919 18.9975 2.04975L18.6025 6H22C22.2761 6 22.5 6.22386 22.5 6.5V9.5C22.5 9.77614 22.2761 10 22 10H18.2025L17.8025 14H22C22.2761 14 22.5 14.2239 22.5 14.5V17.5C22.5 17.7761 22.2761 18 22 18H17.4025L16.9975 22.0498C16.972 22.3054 16.7569 22.5 16.5 22.5H13.5C13.3587 22.5 13.2241 22.4402 13.1293 22.3355C13.0345 22.2308 12.9884 22.0908 13.0025 21.9502L13.3975 18H9.40249L8.99752 22.0498C8.97196 22.3054 8.75688 22.5 8.5 22.5H5.5C5.35874 22.5 5.22406 22.4402 5.12927 22.3355C5.03448 22.2308 4.98843 22.0908 5.00248 21.9502L5.39751 18H2C1.72386 18 1.5 17.7761 1.5 17.5V14.5C1.5 14.2239 1.72386 14 2 14H5.79751L6.19751 10H2C1.72386 10 1.5 9.77614 1.5 9.5V6.5C1.5 6.22386 1.72386 6 2 6H6.59751L7.00248 1.95025ZM7.95249 2.5L7.54752 6.54975C7.52196 6.80535 7.30688 7 7.05 7H2.5V9H6.75C6.89126 9 7.02594 9.05976 7.12073 9.1645C7.21552 9.26924 7.26157 9.40919 7.24752 9.54975L6.74752 14.5498C6.72196 14.8054 6.50688 15 6.25 15H2.5V17H5.95C6.09126 17 6.22594 17.0598 6.32073 17.1645C6.41552 17.2692 6.46158 17.4092 6.44752 17.5498L6.05249 21.5H8.04751L8.45248 17.4502C8.47804 17.1946 8.69312 17 8.95 17H13.95C14.0913 17 14.2259 17.0598 14.3207 17.1645C14.4155 17.2692 14.4616 17.4092 14.4475 17.5498L14.0525 21.5H16.0475L16.4525 17.4502C16.478 17.1946 16.6931 17 16.95 17H21.5V15H17.25C17.1087 15 16.9741 14.9402 16.8793 14.8355C16.7845 14.7308 16.7384 14.5908 16.7525 14.4502L17.2525 9.45025C17.278 9.19465 17.4931 9 17.75 9H21.5V7H18.05C17.9087 7 17.7741 6.94024 17.6793 6.8355C17.5845 6.73076 17.5384 6.59081 17.5525 6.45025L17.9475 2.5H15.9525L15.5475 6.54975C15.522 6.80535 15.3069 7 15.05 7H10.05C9.90874 7 9.77406 6.94024 9.67927 6.8355C9.58448 6.73076 9.53843 6.59081 9.55248 6.45025L9.94751 2.5H7.95249ZM9.25248 9.45025C9.27804 9.19465 9.49312 9 9.75 9H14.75C14.8913 9 15.0259 9.05976 15.1207 9.1645C15.2155 9.26924 15.2616 9.40919 15.2475 9.54975L14.7475 14.5498C14.722 14.8054 14.5069 15 14.25 15H9.25C9.10874 15 8.97406 14.9402 8.87927 14.8355C8.78448 14.7308 8.73843 14.5908 8.75248 14.4502L9.25248 9.45025ZM10.2025 10L9.80249 14H13.7975L14.1975 10H10.2025Z" fill="#624bc9" fill-rule="evenodd"/>
</svg>