<svg width="700" height="700" xmlns="http://www.w3.org/2000/svg" xmlns:xlink="http://www.w3.org/1999/xlink" stroke="null" style="vector-effect: non-scaling-stroke;" version="1.1">

 <g stroke="null">
  <title stroke="null">Layer 1</title>
  <g stroke="null" id="svg_24">
   <path stroke="null" fill="#624bc9" id="svg_25" d="m78.89567,519.47627l72.6447,-0.16179l-0.57548,-260.95919c-0.02459,-11.03939 8.13028,-20.09261 18.11756,-20.11485s18.14215,-9.07611 18.11756,-20.11485s-8.2197,-20.0562 -18.20698,-20.03395s-18.18239,-8.99521 -18.20698,-20.03395l-0.08942,-40.15042c-0.09836,-44.16369 32.50889,-80.36557 72.46588,-80.45456l363.23083,-0.80265c39.95699,-0.08899 72.72517,35.9673 72.82352,80.13098l0.08942,40.15042c0.02459,11.03939 -8.13028,20.09261 -18.11756,20.11485l-90.80843,0.20224l0.46942,210.7772c0.02459,11.03939 -8.13028,20.09261 -18.11756,20.11485s-18.14215,9.07611 -18.11756,20.11485s8.2197,20.0562 18.20698,20.03395s18.18239,8.99521 18.20698,20.03395l0.20118,90.33078c0.10059,45.16539 -31.6026,80.36355 -72.46588,80.45456l-345.07584,0.76852c-39.95699,0.08899 -72.72517,-35.9673 -72.82352,-80.13098l-0.08942,-40.15042c-0.01891,-11.04569 8.13027,-20.09906 18.11755,-20.1213l0.00305,0.00175zm544.04881,-362.53657l-0.04471,-20.0744c-0.04917,-22.07942 -16.43327,-40.11402 -36.41542,-40.06952c-19.97631,0.04449 -36.28577,18.14545 -36.23658,40.23132l0.04471,20.0744l72.652,-0.1618zm-108.03185,421.79709l-0.16318,-73.26794c-20.90485,-7.98099 -36.39306,-30.03151 -36.45341,-57.1259c-0.06036,-27.10085 15.33027,-48.21134 36.19859,-57.28771l-0.56556,-253.94241c-0.03352,-15.05298 3.56884,-28.11064 9.89844,-40.17266l-300.56403,0.6757c-19.97631,0.04449 -36.28577,18.14545 -36.23658,40.23132l0.05142,23.08597c20.90485,7.98099 36.39306,30.03151 36.45341,57.1259c0.06036,27.10085 -15.33027,48.21134 -36.19859,57.28771l0.54318,243.89311l236.10222,-0.52583c9.98786,-0.02224 18.18239,8.99521 18.20698,20.03395l0.08942,40.15042c0.05142,23.08597 15.52698,40.11604 36.41542,40.06952c20.88258,-0.05281 36.28215,-17.15018 36.23074,-40.23131l-0.00846,0.00016zm-417.71033,0.93029c0.04917,22.07942 16.43327,40.11402 36.41542,40.06952l281.50424,-0.62694c-6.38325,-12.02694 -9.13731,-25.07076 -9.17085,-40.13019l-0.04471,-20.0744l-308.7367,0.68759l0.03259,20.07443z"/>
   <path stroke="null" fill="#624bc9" id="svg_26" d="m407.83684,488.82146l-145.29087,0.32358c-9.98786,0.02224 -18.18239,-8.99521 -18.20698,-20.03395s8.13028,-20.09261 18.11756,-20.11485l145.29087,-0.32358c9.98786,-0.02224 18.18239,8.99521 18.20698,20.03395s-8.13028,20.09261 -18.11756,20.11485z"/>
   <path stroke="null" fill="#624bc9" id="svg_27" d="m423.62163,368.16185l-108.9707,0.24269c-9.98786,0.02224 -18.18239,-8.99521 -18.20698,-20.03395s8.13028,-20.09261 18.11756,-20.11485l108.9707,-0.24269c9.98786,-0.02224 18.18239,8.99521 18.20698,20.03395s-8.13028,20.09261 -18.11756,20.11485z"/>
   <path stroke="null" fill="#624bc9" id="svg_28" d="m423.44284,287.88037l-145.29087,0.32358c-9.98786,0.02224 -18.18239,-8.99521 -18.20698,-20.03395s8.13028,-20.09261 18.11756,-20.11485l145.29087,-0.32358c9.98786,-0.02224 18.18239,8.99521 18.20698,20.03395s-8.13028,20.09261 -18.11756,20.11485z"/>
   <path stroke="null" fill="#624bc9" id="svg_29" d="m423.26401,207.58276l-108.9707,0.24269c-9.98786,0.02224 -18.18239,-8.99521 -18.20698,-20.03395s8.13028,-20.09261 18.11756,-20.11485l108.9707,-0.24269c9.98786,-0.02224 18.18239,8.99521 18.20698,20.03395s-8.13028,20.09261 -18.11756,20.11485z"/>
   <use stroke="null" fill="#624bc9" transform="matrix(-1.4594 0.00325026 0.00359245 1.61305 2494.45 -59.7739)" id="svg_50" xlink:href="#r" y="660.66244" x="1183.15643"/>
   <use stroke="null" fill="#624bc9" transform="matrix(-1.4594 0.00325026 0.00359245 1.61305 2494.45 -59.7739)" id="svg_51" xlink:href="#d" y="660.66244" x="1196.69159"/>
   <use stroke="null" fill="#624bc9" transform="matrix(-1.4594 0.00325026 0.00359245 1.61305 2494.45 -59.7739)" id="svg_52" xlink:href="#b" y="660.66244" x="1212.03534"/>
  </g>
 </g>
</svg>