<?xml version="1.0" ?>
<svg data-name="Layer 1" id="Layer_1" viewBox="0 0 100 100" xmlns="http://www.w3.org/2000/svg">
	<defs>
		<style>.cls-1{fill-rule:evenodd;}
		</style>
	</defs>
	<path class="cls-1" fill="#624bc9" d="M5.342,81.594A2.4,2.4,0,0,0,7.4,85.222H92.606a2.4,2.4,0,0,0,0-4.79H79.931L74.845,72.1a25.429,25.429,0,1,0-40.681-30.08c-.093,0-.183,0-.277,0h-.026c-2.971.01-5.781,1.824-7.706,4.979L5.342,81.594ZM76.685,54.973A20.464,20.464,0,0,1,72.221,67.8l-4.034-6.609-.01-.015c-1.944-3.127-4.758-4.917-7.72-4.917h-.031c-2.974.01-5.785,1.826-7.71,4.982l-.01.015-1.1,1.834L41.6,46.94a11.782,11.782,0,0,0-2.865-3.215A20.642,20.642,0,0,1,76.685,54.973ZM64.1,63.689l10.22,16.743H46.8l10.008-16.71c1.038-1.7,2.362-2.675,3.635-2.681h.011c1.268,0,2.6.965,3.646,2.648ZM11.632,80.432,30.251,49.473c1.033-1.687,2.355-2.666,3.628-2.67s2.6.965,3.652,2.66L48.84,67.71,41.221,80.432Z"/>
	<path class="cls-1" fill="#624bc9" d="M55.521,28.292a2.4,2.4,0,0,1-2.393-2.4V17.174a2.394,2.394,0,1,1,4.787,0V25.9A2.394,2.394,0,0,1,55.521,28.292Z"/>
	<path class="cls-1" fill="#624bc9" d="M92.425,59.061h-7.4a2.394,2.394,0,1,1,0-4.787h7.4a2.394,2.394,0,0,1,0,4.787Z"/>
	<path class="cls-1" fill="#624bc9" d="M79.007,36.575a2.4,2.4,0,0,1-3.388-3.387l6.17-6.167a2.393,2.393,0,1,1,3.385,3.384Z"/>
	<path class="cls-1" fill="#624bc9" d="M34.278,37.818a2.39,2.39,0,0,1-1.692-.7l-6.17-6.17A2.394,2.394,0,0,1,29.8,27.562l6.167,6.167a2.4,2.4,0,0,1-1.692,4.089Z"/>
</svg>